<svg width="43" height="43" viewBox="0 0 43 43" fill="none" xmlns="http://www.w3.org/2000/svg">
<g clip-path="url(#clip0_66_141)">
<path d="M14.0646 37.849C10.9591 36.4156 8.4358 34.2507 6.49483 31.3542C4.55386 28.4577 3.58337 25.1879 3.58337 21.5448C3.58337 20.7684 3.6207 20.007 3.69535 19.2604C3.77001 18.5139 3.89692 17.7823 4.07608 17.0656L2.01567 18.275L0.223999 15.1844L8.77921 10.2573L13.7063 18.7677L10.5709 20.5594L8.15212 16.349C7.82365 17.1552 7.5773 17.9913 7.41306 18.8573C7.24883 19.7233 7.16671 20.6191 7.16671 21.5448C7.16671 24.4413 7.95803 27.0766 9.54067 29.4505C11.1233 31.8245 13.2285 33.5788 15.8563 34.7136L14.0646 37.849ZM27.7709 16.125V12.5417H32.6532C31.2796 10.8396 29.6223 9.51824 27.6813 8.57761C25.7403 7.63699 23.6799 7.16668 21.5 7.16668C19.8577 7.16668 18.3049 7.4205 16.8417 7.92814C15.3785 8.43577 14.0348 9.15244 12.8105 10.0781L11.0188 6.94272C12.5118 5.89758 14.1393 5.0764 15.9011 4.47918C17.6629 3.88195 19.5292 3.58334 21.5 3.58334C23.8591 3.58334 26.1136 4.02379 28.2636 4.9047C30.4136 5.7856 32.3396 7.06216 34.0417 8.73439V6.27084H37.625V16.125H27.7709ZM26.6063 43L18.0511 38.0729L22.9782 29.5625L26.0688 31.3542L23.5157 35.7438C27.0393 35.2361 29.9731 33.6386 32.3172 30.9511C34.6613 28.2636 35.8334 25.1132 35.8334 21.5C35.8334 21.1715 35.8259 20.8655 35.811 20.5818C35.796 20.2981 35.7587 20.007 35.699 19.7083H39.3271C39.357 20.007 39.3794 20.2981 39.3943 20.5818C39.4092 20.8655 39.4167 21.1715 39.4167 21.5C39.4167 25.5313 38.2148 29.137 35.811 32.3172C33.4072 35.4974 30.2792 37.6399 26.4271 38.7448L28.398 39.9094L26.6063 43Z" fill="black"/>
</g>
<defs>
<clipPath id="clip0_66_141">
<rect width="43" height="43" fill="white"/>
</clipPath>
</defs>
</svg>
