<svg width="43" height="43" viewBox="0 0 43 43" fill="none" xmlns="http://www.w3.org/2000/svg">
<path d="M16.4834 16.4833L20.4699 9.89897L17.8272 5.50939C17.4688 4.91216 16.9537 4.61355 16.2819 4.61355C15.61 4.61355 15.0949 4.91216 14.7365 5.50939L10.347 12.8104L16.4834 16.4833ZM33.8178 28.6667L29.8313 22.0375L36.0574 18.4542L38.924 23.2469C39.2525 23.7545 39.4317 24.3219 39.4615 24.949C39.4914 25.5761 39.357 26.1583 39.0584 26.6958C38.7598 27.2931 38.3194 27.7708 37.7371 28.1292C37.1548 28.4875 36.5202 28.6667 35.8334 28.6667H33.8178ZM28.6668 41.2083L21.5001 34.0417L28.6668 26.875V30.4583H37.1772L34.5793 35.6542C34.2508 36.2514 33.8029 36.7292 33.2355 37.0875C32.6681 37.4458 32.0411 37.625 31.3543 37.625H28.6668V41.2083ZM11.3324 37.625C10.7352 37.625 10.1902 37.4682 9.69748 37.1547C9.20477 36.8412 8.83897 36.4306 8.60008 35.9229C8.36119 35.4451 8.24921 34.945 8.26414 34.4224C8.27908 33.8998 8.42092 33.4146 8.68967 32.9667L10.2126 30.4583H17.9167V37.625H11.3324ZM6.898 32.5188L3.98654 26.6958C3.71779 26.1583 3.59088 25.5835 3.60581 24.9714C3.62074 24.3592 3.79244 23.7844 4.12091 23.2469L4.83758 22.0375L1.79175 20.2011L11.6011 17.7375L14.0647 27.5917L10.974 25.7104L6.898 32.5188ZM31.0855 17.2L21.2761 14.7365L24.3668 12.9L18.7678 3.58334H25.0834C25.7105 3.58334 26.3003 3.74011 26.8527 4.05366C27.4051 4.3672 27.8456 4.79272 28.174 5.33022L30.5032 9.22709L33.549 7.34584L31.0855 17.2Z" fill="black"/>
</svg>
