<svg width="43" height="43" viewBox="0 0 43 43" fill="none" xmlns="http://www.w3.org/2000/svg">
<path d="M38.7 41.2083L33.1906 35.7437C32.6531 36.0722 32.0783 36.3186 31.4661 36.4828C30.854 36.647 30.2194 36.7292 29.5625 36.7292C27.5917 36.7292 25.9045 36.0274 24.501 34.624C23.0976 33.2205 22.3958 31.5333 22.3958 29.5625C22.3958 27.5917 23.0976 25.9045 24.501 24.501C25.9045 23.0976 27.5917 22.3958 29.5625 22.3958C31.5333 22.3958 33.2205 23.0976 34.624 24.501C36.0274 25.9045 36.7292 27.5917 36.7292 29.5625C36.7292 30.2493 36.6396 30.8988 36.4604 31.5109C36.2812 32.1231 36.0274 32.6979 35.699 33.2354L41.2083 38.7L38.7 41.2083ZM9.85417 36.7292C7.88333 36.7292 6.19618 36.0274 4.79271 34.624C3.38924 33.2205 2.6875 31.5333 2.6875 29.5625C2.6875 27.5917 3.38924 25.9045 4.79271 24.501C6.19618 23.0976 7.88333 22.3958 9.85417 22.3958C11.825 22.3958 13.5122 23.0976 14.9156 24.501C16.3191 25.9045 17.0208 27.5917 17.0208 29.5625C17.0208 31.5333 16.3191 33.2205 14.9156 34.624C13.5122 36.0274 11.825 36.7292 9.85417 36.7292ZM9.85417 33.1458C10.8396 33.1458 11.6832 32.795 12.3849 32.0932C13.0866 31.3915 13.4375 30.5479 13.4375 29.5625C13.4375 28.5771 13.0866 27.7335 12.3849 27.0318C11.6832 26.33 10.8396 25.9792 9.85417 25.9792C8.86875 25.9792 8.02517 26.33 7.32344 27.0318C6.6217 27.7335 6.27083 28.5771 6.27083 29.5625C6.27083 30.5479 6.6217 31.3915 7.32344 32.0932C8.02517 32.795 8.86875 33.1458 9.85417 33.1458ZM29.5625 33.1458C30.5479 33.1458 31.3915 32.795 32.0932 32.0932C32.795 31.3915 33.1458 30.5479 33.1458 29.5625C33.1458 28.5771 32.795 27.7335 32.0932 27.0318C31.3915 26.33 30.5479 25.9792 29.5625 25.9792C28.5771 25.9792 27.7335 26.33 27.0318 27.0318C26.33 27.7335 25.9792 28.5771 25.9792 29.5625C25.9792 30.5479 26.33 31.3915 27.0318 32.0932C27.7335 32.795 28.5771 33.1458 29.5625 33.1458ZM9.85417 17.0208C7.88333 17.0208 6.19618 16.3191 4.79271 14.9156C3.38924 13.5122 2.6875 11.825 2.6875 9.85417C2.6875 7.88333 3.38924 6.19618 4.79271 4.79271C6.19618 3.38924 7.88333 2.6875 9.85417 2.6875C11.825 2.6875 13.5122 3.38924 14.9156 4.79271C16.3191 6.19618 17.0208 7.88333 17.0208 9.85417C17.0208 11.825 16.3191 13.5122 14.9156 14.9156C13.5122 16.3191 11.825 17.0208 9.85417 17.0208ZM29.5625 17.0208C27.5917 17.0208 25.9045 16.3191 24.501 14.9156C23.0976 13.5122 22.3958 11.825 22.3958 9.85417C22.3958 7.88333 23.0976 6.19618 24.501 4.79271C25.9045 3.38924 27.5917 2.6875 29.5625 2.6875C31.5333 2.6875 33.2205 3.38924 34.624 4.79271C36.0274 6.19618 36.7292 7.88333 36.7292 9.85417C36.7292 11.825 36.0274 13.5122 34.624 14.9156C33.2205 16.3191 31.5333 17.0208 29.5625 17.0208ZM9.85417 13.4375C10.8396 13.4375 11.6832 13.0866 12.3849 12.3849C13.0866 11.6832 13.4375 10.8396 13.4375 9.85417C13.4375 8.86875 13.0866 8.02517 12.3849 7.32344C11.6832 6.6217 10.8396 6.27083 9.85417 6.27083C8.86875 6.27083 8.02517 6.6217 7.32344 7.32344C6.6217 8.02517 6.27083 8.86875 6.27083 9.85417C6.27083 10.8396 6.6217 11.6832 7.32344 12.3849C8.02517 13.0866 8.86875 13.4375 9.85417 13.4375ZM29.5625 13.4375C30.5479 13.4375 31.3915 13.0866 32.0932 12.3849C32.795 11.6832 33.1458 10.8396 33.1458 9.85417C33.1458 8.86875 32.795 8.02517 32.0932 7.32344C31.3915 6.6217 30.5479 6.27083 29.5625 6.27083C28.5771 6.27083 27.7335 6.6217 27.0318 7.32344C26.33 8.02517 25.9792 8.86875 25.9792 9.85417C25.9792 10.8396 26.33 11.6832 27.0318 12.3849C27.7335 13.0866 28.5771 13.4375 29.5625 13.4375Z" fill="black"/>
</svg>
